<?xml version="1.0" standalone="no"?>
<!DOCTYPE svg PUBLIC "-//W3C//DTD SVG 20010904//EN"
 "http://www.w3.org/TR/2001/REC-SVG-20010904/DTD/svg10.dtd">
<svg version="1.0" xmlns="http://www.w3.org/2000/svg"
 width="260.000000pt" height="260.000000pt" viewBox="0 0 260.000000 260.000000"
 preserveAspectRatio="xMidYMid meet">
<metadata>
Created by potrace 1.14, written by Peter Selinger 2001-2017
</metadata>
<g transform="translate(0.000000,260.000000) scale(0.100000,-0.100000)"
fill="#000000" stroke="none">
<path d="M1275 2435 c-15 -30 -30 -57 -36 -60 -5 -4 -19 10 -30 30 -26 44 -57
63 -65 40 -4 -8 -2 -21 4 -28 5 -6 12 -28 15 -47 3 -19 11 -52 19 -73 l13 -38
120 3 120 3 6 45 c3 25 11 58 18 74 13 33 6 66 -14 66 -8 0 -25 -18 -37 -40
-24 -42 -48 -53 -48 -21 0 11 -4 22 -9 25 -5 3 -12 22 -15 41 -10 51 -31 44
-61 -20z"/>
<path d="M1037 2363 c-11 -10 -8 -61 4 -68 5 -4 14 -18 19 -31 5 -13 14 -24
20 -24 20 0 22 30 6 64 -9 19 -16 41 -16 50 0 16 -21 22 -33 9z"/>
<path d="M1563 2357 c-21 -27 -44 -89 -39 -103 10 -27 35 -14 54 27 18 40 19
74 2 84 -4 3 -12 -1 -17 -8z"/>
<path d="M935 2310 c-7 -11 27 -81 49 -99 8 -7 20 -10 26 -6 13 8 13 35 0 35
-5 0 -10 6 -10 14 0 16 -38 66 -50 66 -5 0 -12 -4 -15 -10z"/>
<path d="M1647 2302 c-10 -10 -17 -24 -17 -31 0 -7 -7 -19 -15 -27 -15 -15
-10 -44 7 -44 11 0 47 41 48 54 0 5 8 18 17 28 15 17 15 20 3 28 -21 13 -25
12 -43 -8z"/>
<path d="M852 2262 c-22 -15 12 -78 55 -100 42 -23 37 9 -11 81 -20 29 -24 31
-44 19z"/>
<path d="M1725 2233 c-11 -21 -26 -43 -34 -49 -15 -12 -7 -34 11 -34 20 0 79
74 76 95 -5 34 -32 28 -53 -12z"/>
<path d="M760 2189 c0 -16 72 -89 88 -89 21 0 13 29 -15 59 -31 32 -73 49 -73
30z"/>
<path d="M1791 2156 c-30 -31 -35 -56 -10 -56 17 0 81 68 74 79 -11 19 -30 12
-64 -23z"/>
<path d="M695 2120 c-11 -18 4 -44 38 -67 64 -44 83 -21 31 37 -36 40 -57 49
-69 30z"/>
<path d="M1855 2083 c-34 -36 -39 -53 -19 -60 18 -6 95 57 92 75 -6 30 -36 24
-73 -15z"/>
<path d="M620 2020 c0 -11 6 -20 13 -20 7 0 29 -11 48 -25 20 -13 39 -21 43
-18 12 13 5 44 -11 50 -10 4 -24 13 -31 20 -22 21 -62 17 -62 -7z"/>
<path d="M1946 2025 c-8 -8 -19 -15 -24 -15 -4 0 -19 -11 -32 -25 -21 -22 -21
-25 -6 -31 19 -7 47 5 91 40 29 23 29 23 8 35 -17 9 -25 8 -37 -4z"/>
<path d="M574 1945 c-6 -16 31 -54 54 -55 7 0 21 -6 32 -12 13 -9 23 -9 30 -2
14 14 -16 54 -39 54 -10 0 -24 7 -31 15 -16 19 -39 19 -46 0z"/>
<path d="M1968 1922 c-55 -30 -62 -52 -18 -52 17 0 30 5 30 10 0 6 8 10 19 10
24 0 45 25 37 45 -7 19 -12 18 -68 -13z"/>
<path d="M987 1910 c-21 -4 -43 -12 -48 -17 -6 -6 -9 -92 -7 -232 2 -121 0
-221 -4 -221 -4 0 -9 91 -10 202 -3 184 -5 203 -20 206 -17 3 -18 -13 -18
-238 l0 -242 23 5 c12 3 33 9 47 12 24 7 24 7 5 -8 -11 -9 -28 -17 -37 -17 -9
0 -20 -4 -23 -10 -10 -16 -32 -11 -32 8 1 9 0 97 -1 195 -2 150 -4 177 -17
177 -13 0 -15 -33 -15 -234 0 -129 4 -237 9 -240 5 -3 19 2 32 12 35 25 62 41
79 48 8 3 23 10 34 16 24 13 207 14 232 1 10 -6 35 -10 54 -9 l35 1 3 129 c2
97 -1 132 -10 138 -10 8 -10 11 0 15 16 6 16 182 -1 203 -14 18 -70 59 -105
77 -22 12 -134 34 -157 32 -5 -1 -27 -5 -48 -9z m271 -286 c-10 -10 -28 6 -28
24 0 15 1 15 17 -1 9 -9 14 -19 11 -23z m-68 -9 c0 -8 -4 -15 -10 -15 -5 0 -7
7 -4 15 4 8 8 15 10 15 2 0 4 -7 4 -15z m-147 -222 c-13 -2 -33 -2 -45 0 -13
2 -3 4 22 4 25 0 35 -2 23 -4z"/>
<path d="M1506 1910 c-27 -5 -54 -14 -59 -19 -6 -6 -18 -11 -27 -11 -9 0 -35
-16 -58 -36 -41 -35 -42 -37 -42 -100 0 -36 5 -75 11 -86 8 -15 8 -26 0 -42
-8 -13 -11 -69 -9 -156 l3 -135 35 2 c19 1 58 7 85 12 98 19 215 -4 282 -55
63 -48 63 -49 63 207 0 222 -1 231 -20 236 -15 4 -20 14 -20 42 0 55 -10 81
-31 81 -11 0 -19 7 -19 15 0 38 -101 61 -194 45z m-56 -220 c0 -11 -4 -20 -9
-20 -5 0 -7 9 -4 20 3 11 7 20 9 20 2 0 4 -9 4 -20z m126 -3 c1 -11 0 -12 -3
-3 -2 9 -21 17 -44 19 l-39 4 42 -1 c33 -1 43 -5 44 -19z m109 -304 c44 -16
69 -32 61 -40 -1 -2 -22 7 -47 19 -24 12 -64 25 -89 29 -42 6 -42 6 -10 8 19
0 58 -7 85 -16z"/>
<path d="M551 1851 c-17 -11 -7 -41 13 -41 7 0 26 -6 41 -14 15 -8 34 -12 41
-9 25 9 15 31 -26 52 -46 24 -49 24 -69 12z"/>
<path d="M2025 1840 c-3 -5 -17 -10 -29 -10 -13 0 -29 -6 -35 -14 -17 -20 19
-39 55 -30 32 8 75 43 68 56 -7 11 -51 10 -59 -2z"/>
<path d="M514 1739 c-10 -17 7 -26 64 -32 46 -5 52 -4 52 12 0 11 -7 22 -16
25 -26 10 -92 7 -100 -5z"/>
<path d="M2010 1733 c-36 -19 -41 -32 -18 -47 9 -5 27 -3 49 7 19 8 42 18 52
21 10 3 17 12 15 19 -7 19 -60 19 -98 0z"/>
<path d="M518 1643 c-25 -6 -22 -30 5 -37 51 -14 107 -4 107 19 0 22 -60 32
-112 18z"/>
<path d="M2037 1643 c-39 -3 -48 -7 -45 -21 2 -13 16 -18 61 -20 56 -3 58 -2
55 19 -3 26 -6 26 -71 22z"/>
<path d="M597 1553 c-4 -3 -24 -9 -44 -12 -46 -8 -52 -34 -9 -39 45 -5 76 6
76 28 0 20 -13 33 -23 23z"/>
<path d="M1985 1530 c-13 -21 8 -30 66 -30 52 0 60 2 57 18 -2 13 -15 18 -60
20 -32 2 -59 -2 -63 -8z"/>
<path d="M600 1463 c-42 -13 -80 -36 -80 -48 0 -18 50 -20 83 -3 12 6 28 14
35 17 31 14 -4 44 -38 34z"/>
<path d="M1970 1447 c0 -36 75 -69 109 -48 23 15 5 41 -28 41 -16 0 -33 5 -36
10 -9 15 -45 12 -45 -3z"/>
<path d="M386 1423 c-4 -4 -35 -11 -69 -15 -265 -33 -262 -32 -265 -54 -2 -13
5 -25 20 -32 29 -15 54 -31 95 -59 17 -13 34 -23 38 -23 3 0 15 -9 27 -20 20
-18 20 -22 7 -47 -8 -15 -31 -50 -51 -77 -21 -28 -38 -54 -38 -59 0 -5 -11
-18 -25 -29 -34 -27 -32 -48 4 -48 17 0 33 5 36 10 3 6 24 10 45 10 52 0 128
21 134 36 3 7 0 37 -5 66 -6 29 -14 80 -18 113 -4 33 -11 67 -15 76 -6 13 0
18 26 22 54 8 113 34 116 51 2 8 -4 31 -13 51 -16 33 -33 43 -49 28z"/>
<path d="M2197 1406 c-9 -13 -17 -36 -19 -52 -3 -26 1 -29 27 -32 16 -2 38
-10 49 -18 11 -8 31 -14 43 -14 19 0 22 -4 18 -22 -6 -24 -24 -145 -32 -215
-6 -51 11 -63 104 -71 35 -2 66 -9 69 -13 7 -11 61 -12 68 -1 3 5 -6 20 -20
35 -13 14 -24 29 -24 33 0 6 -59 85 -71 94 -3 3 -14 20 -24 39 -17 34 -17 34
6 52 13 10 28 19 32 19 5 0 23 11 41 25 18 14 38 25 44 25 7 0 12 5 12 10 0 6
12 15 26 20 19 7 25 16 22 33 -3 20 -12 23 -98 35 -52 7 -122 15 -155 18 -33
4 -64 10 -69 15 -17 15 -33 10 -49 -15z"/>
<path d="M645 1370 c-3 -5 -17 -10 -30 -10 -13 0 -33 -10 -45 -22 -18 -20 -19
-23 -5 -38 15 -14 17 -13 29 3 7 9 22 17 33 17 24 0 58 34 48 49 -8 14 -22 14
-30 1z"/>
<path d="M1945 1350 c-9 -15 3 -30 24 -30 10 0 24 -7 31 -15 16 -19 54 -16 58
5 2 10 -12 22 -36 33 -44 19 -68 22 -77 7z"/>
<path d="M419 1289 c-8 -5 -29 -9 -47 -9 -41 0 -48 -17 -34 -83 21 -98 34
-172 42 -232 11 -77 36 -103 80 -80 16 8 42 15 58 15 15 0 37 7 48 15 10 8 38
15 62 15 54 0 67 23 30 55 -14 12 -34 35 -44 51 -11 16 -28 39 -39 52 -25 29
-58 83 -89 148 -26 54 -44 68 -67 53z"/>
<path d="M2154 1284 c-14 -40 -67 -144 -74 -144 -3 0 -13 -12 -21 -27 -16 -32
-40 -62 -86 -109 -51 -51 -41 -74 32 -74 18 0 38 -7 45 -15 7 -8 27 -15 45
-15 18 0 48 -6 66 -14 62 -25 74 -11 89 101 7 54 16 127 21 163 17 130 18 123
-21 133 -81 20 -90 20 -96 1z"/>
<path d="M633 1262 c-36 -17 -46 -52 -15 -52 26 0 87 36 87 51 0 19 -34 20
-72 1z"/>
<path d="M1894 1269 c-7 -11 31 -48 50 -49 5 0 17 -7 27 -16 19 -17 39 -11 39
11 0 16 -71 65 -94 65 -8 0 -18 -5 -22 -11z"/>
<path d="M707 1191 c-34 -22 -60 -58 -53 -70 16 -25 114 44 103 72 -8 21 -15
21 -50 -2z"/>
<path d="M1846 1191 c-7 -11 22 -43 61 -66 26 -15 35 -17 45 -7 10 10 4 20
-27 47 -38 34 -68 44 -79 26z"/>
<path d="M800 1132 c-22 -7 -80 -64 -80 -78 0 -27 22 -24 56 8 55 51 66 84 24
70z"/>
<path d="M1787 1116 c-5 -14 63 -86 81 -86 5 0 13 8 17 17 4 13 -4 27 -29 50
-38 35 -61 41 -69 19z"/>
<path d="M846 1058 c-10 -13 -25 -31 -33 -40 -14 -16 -10 -58 6 -58 15 0 73
91 67 105 -8 21 -19 19 -40 -7z"/>
<path d="M1710 1057 c0 -7 10 -23 23 -37 13 -14 26 -33 30 -42 6 -18 32 -24
40 -10 13 20 -49 102 -77 102 -9 0 -16 -6 -16 -13z"/>
<path d="M924 998 c-32 -37 -49 -77 -38 -88 19 -19 91 67 80 96 -8 20 -19 17
-42 -8z"/>
<path d="M1635 1011 c-8 -13 54 -111 70 -111 20 0 27 31 10 50 -8 9 -15 21
-15 27 0 10 -42 43 -54 43 -3 0 -7 -4 -11 -9z"/>
<path d="M999 943 c-11 -26 -19 -56 -17 -67 4 -28 32 -27 36 1 2 12 10 27 18
33 19 16 18 66 -1 74 -12 4 -21 -7 -36 -41z"/>
<path d="M1561 966 c-12 -14 -11 -19 2 -34 8 -9 17 -28 19 -42 2 -17 10 -26
27 -28 19 -3 22 0 17 13 -3 9 -6 24 -6 33 0 9 -10 30 -23 46 -21 25 -24 27
-36 12z"/>
<path d="M1106 937 c-11 -8 -20 -31 -23 -60 -5 -42 -3 -47 14 -47 15 0 22 11
32 52 13 56 5 75 -23 55z"/>
<path d="M1482 942 c-8 -6 -10 -22 -6 -56 7 -48 21 -63 49 -52 14 5 14 9 0 36
-9 17 -14 34 -11 39 9 14 -18 41 -32 33z"/>
<path d="M1196 928 c-3 -7 -6 -29 -9 -48 -2 -19 -6 -42 -8 -50 -3 -10 4 -15
21 -15 24 0 25 3 25 59 0 39 -4 61 -12 63 -7 3 -15 -1 -17 -9z"/>
<path d="M1375 911 c-8 -27 12 -98 29 -104 28 -11 35 16 17 67 -18 54 -36 68
-46 37z"/>
<path d="M1292 908 c-7 -7 -12 -31 -12 -54 0 -33 4 -43 19 -47 28 -7 31 -1 31
60 0 54 -12 67 -38 41z"/>
<path d="M1954 696 c-36 -20 -53 -37 -69 -69 -20 -39 -19 -49 6 -94 26 -46 37
-54 147 -113 40 -21 82 -66 82 -89 0 -14 -64 -61 -84 -61 -37 0 -96 41 -116
80 -34 66 -49 53 -45 -37 2 -43 4 -80 4 -82 1 -3 6 0 13 7 17 17 59 15 97 -4
51 -25 104 -11 157 43 36 37 44 53 44 82 0 55 -32 95 -105 132 -85 43 -118 67
-133 95 -9 17 -6 26 18 52 31 35 60 41 80 17 7 -8 20 -15 29 -15 15 0 31 -26
46 -77 7 -26 30 -30 39 -7 6 15 -1 115 -10 143 -4 11 -7 12 -16 3 -15 -15 -65
-16 -73 -2 -8 14 -85 11 -111 -4z"/>
<path d="M430 697 c0 -4 11 -17 25 -31 25 -25 25 -27 25 -200 0 -174 0 -175
-25 -194 -14 -11 -25 -24 -25 -29 0 -11 228 -10 285 2 68 14 125 72 125 127 0
28 -29 74 -56 89 l-24 12 25 25 c36 36 42 83 16 126 -35 56 -77 70 -233 74
-76 2 -138 2 -138 -1z m271 -73 c24 -21 25 -81 2 -106 -12 -14 -31 -18 -80
-18 l-63 0 0 68 c0 38 3 72 8 76 12 14 113 -2 133 -20z m-25 -180 c47 -20 63
-40 64 -80 0 -48 -29 -68 -111 -72 l-69 -4 0 86 0 86 39 0 c21 0 56 -7 77 -16z"/>
<path d="M880 692 c0 -5 11 -19 25 -32 25 -23 25 -25 25 -197 l0 -173 -25 -16
c-45 -29 -32 -43 43 -42 37 0 70 2 75 5 4 2 -6 18 -23 34 l-30 31 0 146 c0
141 1 146 16 112 8 -19 22 -48 30 -63 8 -16 14 -35 14 -43 0 -8 7 -17 15 -20
8 -4 15 -12 15 -20 0 -11 35 -96 59 -144 5 -8 18 -16 29 -18 16 -3 23 3 28 25
4 15 10 30 13 33 10 8 83 168 95 208 4 12 11 22 16 22 5 0 11 12 13 28 2 15 5
-40 6 -121 l1 -148 -30 -26 c-17 -14 -28 -28 -25 -32 4 -3 47 -6 96 -7 69 -1
89 2 89 12 0 8 -7 14 -15 14 -29 0 -36 40 -36 208 0 92 3 175 6 184 4 9 15 18
26 21 39 10 18 27 -35 27 -54 0 -106 -26 -106 -53 0 -11 -16 -46 -76 -170 -13
-27 -24 -54 -24 -61 0 -7 -9 -21 -20 -31 -15 -14 -20 -15 -20 -4 0 14 -13 42
-95 211 -33 68 -53 98 -68 102 -33 9 -107 7 -107 -2z"/>
<path d="M1480 691 c0 -5 10 -15 23 -23 21 -15 22 -22 25 -192 l3 -176 -27
-25 c-15 -14 -24 -29 -20 -33 4 -4 46 -8 92 -8 88 -2 105 9 64 37 -16 12 -20
27 -21 89 l-2 75 40 -3 c83 -7 173 62 173 132 0 24 -24 68 -57 103 -7 7 -35
18 -64 23 -64 12 -229 13 -229 1z m236 -68 c19 -26 17 -97 -3 -121 -10 -12
-33 -22 -53 -24 l-35 -3 -5 78 c-3 43 -3 81 -1 83 13 12 85 2 97 -13z"/>
<path d="M803 169 c-40 -25 -46 -74 -12 -102 26 -22 94 -20 94 3 0 11 -9 14
-32 12 -31 -2 -33 0 -33 33 0 36 15 46 38 23 9 -9 15 -9 25 1 10 10 7 16 -12
32 -29 23 -29 23 -68 -2z"/>
<path d="M1206 165 c-20 -22 -24 -23 -38 -8 -25 24 -38 7 -38 -48 0 -53 17
-72 44 -50 10 8 16 9 21 1 3 -5 23 -10 44 -10 46 0 71 24 71 67 0 25 -7 36
-34 52 -42 26 -42 26 -70 -4z m54 -50 c0 -38 -13 -44 -45 -21 -19 14 -19 15
-1 35 29 32 46 27 46 -14z"/>
<path d="M1511 164 c-36 -30 -41 -72 -13 -97 22 -20 88 -23 96 -4 5 10 7 10
12 0 9 -20 114 -17 114 2 0 10 -11 15 -35 15 -19 0 -35 5 -35 10 0 6 13 10 28
10 16 0 32 3 35 7 12 11 -14 33 -39 33 -13 0 -24 5 -24 10 0 6 16 10 35 10 19
0 35 5 35 10 0 14 -76 13 -99 -2 -14 -9 -23 -8 -42 5 -30 22 -32 22 -68 -9z
m54 -25 c4 -6 13 -8 20 -5 16 6 26 -16 16 -32 -12 -19 -66 -26 -79 -10 -9 11
-8 19 4 36 17 24 29 28 39 11z"/>
<path d="M416 164 c-11 -30 -7 -114 7 -115 6 0 53 0 102 1 67 1 93 5 101 16
12 15 44 9 44 -8 0 -5 19 -8 43 -6 l42 3 0 54 c0 67 -22 83 -27 19 -2 -35 -7
-43 -23 -43 -16 0 -20 7 -20 37 0 44 -10 56 -35 41 -14 -10 -21 -9 -30 2 -32
39 -114 -2 -108 -53 3 -24 -1 -27 -29 -30 -19 -2 -33 1 -33 7 0 6 12 11 26 11
33 0 30 33 -4 38 -29 4 -18 22 14 22 14 0 22 4 19 10 -10 17 -82 12 -89 -6z
m186 -31 c23 -21 23 -39 -1 -46 -29 -7 -43 7 -35 36 7 32 11 33 36 10z"/>
<path d="M1020 170 c0 -5 9 -14 20 -20 15 -8 20 -21 20 -56 0 -38 3 -45 18
-42 12 2 18 15 20 48 2 25 7 49 13 54 18 19 8 26 -41 26 -27 0 -50 -4 -50 -10z"/>
<path d="M1743 167 c-9 -10 -9 -31 -4 -109 1 -5 8 -8 16 -8 14 0 19 12 16 33
-2 13 10 7 35 -18 34 -34 54 -20 48 33 -3 20 -1 43 4 51 17 25 32 1 32 -50 0
-43 3 -50 18 -47 12 2 18 15 20 48 2 25 7 49 13 55 18 18 8 25 -33 24 -71 -2
-92 -11 -98 -44 l-6 -30 -17 32 c-21 39 -32 47 -44 30z"/>
<path d="M1977 173 c-4 -3 -7 -33 -7 -65 0 -56 5 -64 34 -59 5 1 31 2 57 3 41
0 48 3 51 21 4 30 26 32 39 3 7 -14 20 -26 30 -26 21 0 34 16 19 25 -5 3 -10
23 -10 44 0 44 -14 61 -53 61 -50 0 -67 -16 -67 -64 0 -42 -1 -42 -30 -38 -34
5 -40 19 -10 24 27 4 28 20 1 34 -23 12 -18 24 11 24 10 0 18 5 18 10 0 11
-73 14 -83 3z m168 -23 c3 -5 -1 -10 -9 -10 -9 0 -16 5 -16 10 0 6 4 10 9 10
6 0 13 -4 16 -10z"/>
<path d="M930 146 c-5 -13 -14 -27 -19 -31 -6 -3 -11 -17 -11 -31 0 -30 29
-44 42 -20 9 16 12 16 34 1 38 -25 64 6 29 35 -8 7 -15 23 -15 35 0 21 -17 35
-41 35 -5 0 -14 -11 -19 -24z"/>
<path d="M1327 163 c-3 -5 -4 -30 -3 -57 1 -53 20 -73 34 -35 l9 22 15 -22
c10 -13 24 -21 35 -19 26 5 27 111 1 116 -14 3 -18 -3 -18 -22 0 -33 -13 -33
-30 -1 -13 24 -34 33 -43 18z"/>
</g>
</svg>
